<svg width="800" height="800" viewBox="0 0 800 800" fill="none" xmlns="http://www.w3.org/2000/svg">
<rect width="800" height="800" fill="#E5E5E5"/>
<circle cx="400" cy="400" r="400" fill="#333333"/>
<path d="M412.906 177.43L486.637 84.6562L596.012 135.926C592.431 149.272 588.199 162.293 583.316 174.988C578.759 187.684 576.48 200.704 576.48 214.051L569.645 412.293C569.645 413.27 569.645 414.246 569.645 415.223C569.645 431.173 574.527 444.357 584.293 454.773C594.059 464.865 605.289 472.514 617.984 477.723L520.328 596.863L413.883 504.09L286.93 596.863L183.902 513.367C202.783 490.906 212.223 468.445 212.223 445.984L215.641 224.305C215.641 208.68 203.596 193.055 179.508 177.43L253.727 84.6562L362.613 135.926C359.033 149.272 354.801 162.293 349.918 174.988C345.361 187.684 343.082 200.704 343.082 214.051L336.734 412.293C336.083 427.918 341.943 444.357 354.312 461.609C358.219 466.492 363.427 468.934 369.938 468.934C386.214 468.934 411.441 454.122 445.621 424.5L449.039 224.305C449.039 208.68 436.995 193.055 412.906 177.43Z" fill="#008080"/>
<path d="M222.371 600.781C221.915 607.617 221.004 615.592 219.637 624.707C218.27 633.822 215.763 642.253 212.117 650C208.471 657.747 203.686 664.355 197.762 669.824C191.837 675.293 184.09 677.572 174.52 676.66C169.051 676.204 164.721 674.609 161.531 671.875C157.885 669.141 154.923 665.723 152.645 661.621C150.366 657.52 148.771 653.19 147.859 648.633C146.492 643.62 145.809 638.835 145.809 634.277V619.922C147.176 613.542 151.049 606.478 157.43 598.73C163.354 590.527 169.507 584.603 175.887 580.957C182.723 577.311 188.875 577.311 194.344 580.957C199.812 584.603 202.775 594.629 203.23 611.035C206.421 608.301 209.383 605.566 212.117 602.832C214.852 599.642 218.27 598.958 222.371 600.781ZM655.77 600.781C655.314 607.617 654.402 615.592 653.035 624.707C651.668 633.822 649.161 642.253 645.516 650C641.87 657.747 637.085 664.355 631.16 669.824C625.236 675.293 617.488 677.572 607.918 676.66C602.449 676.204 598.12 674.609 594.93 671.875C591.284 669.141 588.322 665.723 586.043 661.621C583.764 657.52 582.169 653.19 581.258 648.633C579.891 643.62 579.207 638.835 579.207 634.277V619.922C580.574 613.542 584.448 606.478 590.828 598.73C596.753 590.527 602.905 584.603 609.285 580.957C616.121 577.311 622.273 577.311 627.742 580.957C633.211 584.603 636.173 594.629 636.629 611.035C639.819 608.301 642.781 605.566 645.516 602.832C648.25 599.642 651.668 598.958 655.77 600.781Z" fill="#008080"/>
</svg>
